<?xml version="1.0" encoding="UTF-8" standalone="no"?>
<svg
   xmlns:dc="http://purl.org/dc/elements/1.1/"
   xmlns:cc="http://creativecommons.org/ns#"
   xmlns:rdf="http://www.w3.org/1999/02/22-rdf-syntax-ns#"
   xmlns:svg="http://www.w3.org/2000/svg"
   xmlns="http://www.w3.org/2000/svg"
   xmlns:sodipodi="http://sodipodi.sourceforge.net/DTD/sodipodi-0.dtd"
   xmlns:inkscape="http://www.inkscape.org/namespaces/inkscape"
   version="1.1"
   x="0px"
   y="0px"
   viewBox="0 0 88.10202 78.491997"
   enable-background="new 0 0 100 100"
   xml:space="preserve"
   id="svg28"
   sodipodi:docname="ice.svg"
   width="88.10202"
   height="78.491997"
   inkscape:version="0.92.4 (5da689c313, 2019-01-14)"><metadata
     id="metadata34"><rdf:RDF><cc:Work
         rdf:about=""><dc:format>image/svg+xml</dc:format><dc:type
           rdf:resource="http://purl.org/dc/dcmitype/StillImage" /><dc:title></dc:title></cc:Work></rdf:RDF></metadata><defs
     id="defs32" /><sodipodi:namedview
     pagecolor="#ffffff"
     bordercolor="#666666"
     borderopacity="1"
     objecttolerance="10"
     gridtolerance="10"
     guidetolerance="10"
     inkscape:pageopacity="0"
     inkscape:pageshadow="2"
     inkscape:window-width="1920"
     inkscape:window-height="1001"
     id="namedview30"
     showgrid="false"
     inkscape:zoom="7.552"
     inkscape:cx="45.321118"
     inkscape:cy="36.754558"
     inkscape:window-x="-9"
     inkscape:window-y="-9"
     inkscape:window-maximized="1"
     inkscape:current-layer="svg28" /><g
     id="g22"
     transform="translate(-5.8793228,-10.988)"><g
       id="g6"><path
         d="m 45.333,36.206 -17.26,-7.05 c -0.666,-0.271 -1.441,-0.415 -2.246,-0.415 -1.411,0 -2.797,0.424 -3.802,1.163 L 8.261,40.014 c -1.671,1.227 -2.665,3.694 -2.31,5.738 l 2.5,14.4 c 0.319,1.847 1.716,3.893 3.32,4.863 l 15.576,9.424 c 0.754,0.456 1.64,0.698 2.561,0.698 1.436,0 2.843,-0.605 3.765,-1.622 l 11.119,-12.25 c 1.137,-1.252 2.09,-3.382 2.266,-5.063 l 1.529,-14.558 c 0.234,-2.246 -1.165,-4.584 -3.254,-5.438 z m -0.248,5.071 -1.529,14.557 c -0.098,0.936 -0.739,2.368 -1.373,3.065 L 31.066,71.15 c -0.262,0.287 -0.706,0.467 -1.159,0.467 -0.278,0 -0.535,-0.067 -0.74,-0.19 L 13.591,62.003 c -0.73,-0.442 -1.527,-1.61 -1.674,-2.452 L 9.42,45.149 C 9.29,44.398 9.73,43.301 10.345,42.85 L 24.109,32.741 c 0.396,-0.291 1.07,-0.479 1.718,-0.479 0.348,0 0.672,0.055 0.915,0.154 L 44,39.465 c 0.64,0.261 1.156,1.124 1.085,1.812 z"
         id="path2"
         inkscape:connector-curvature="0"
         style="fill:#bf0000" /><path
         d="m 31.779,56.305 c 0.047,-0.386 0.291,-0.941 0.541,-1.237 L 43.444,41.92 c 0.25,-0.297 0.213,-0.332 -0.08,-0.081 L 30.816,52.59 c -0.293,0.251 -0.825,0.335 -1.182,0.181 L 12.106,45.298 c -0.356,-0.152 -0.377,-0.111 -0.047,0.09 l 16.158,9.861 c 0.33,0.201 0.626,0.683 0.656,1.068 l 1.065,13.578 c 0.029,0.387 0.094,0.388 0.142,0.004 z"
         id="path4"
         inkscape:connector-curvature="0"
         style="fill:#bf0000" /></g><path
       d="m 58.193,38.564 0.738,9.407 1.092,-0.801 1.074,-8.619 c 0.049,-0.384 0.293,-0.94 0.545,-1.236 L 72.763,24.166 c 0.25,-0.295 0.215,-0.332 -0.078,-0.079 L 60.137,34.835 c -0.293,0.253 -0.826,0.335 -1.182,0.183 L 41.426,27.544 c -0.355,-0.153 -0.377,-0.111 -0.047,0.09 l 16.16,9.861 c 0.33,0.203 0.625,0.683 0.654,1.069 z"
       id="path8"
       inkscape:connector-curvature="0"
       style="fill:#bf0000" /><g
       id="g14"><path
         d="M 90.705,50.55 73.445,43.5 c -0.666,-0.272 -1.441,-0.415 -2.246,-0.415 -1.41,0 -2.797,0.423 -3.803,1.161 l -13.762,10.11 c -1.672,1.228 -2.666,3.694 -2.311,5.739 l 2.5,14.399 c 0.318,1.847 1.715,3.892 3.32,4.862 l 15.574,9.425 c 0.754,0.457 1.641,0.699 2.562,0.699 1.436,0 2.842,-0.606 3.764,-1.622 L 90.162,75.607 c 1.137,-1.253 2.09,-3.382 2.266,-5.063 l 1.527,-14.558 c 0.238,-2.245 -1.16,-4.583 -3.25,-5.436 z m -0.248,5.07 -1.529,14.557 c -0.096,0.937 -0.738,2.368 -1.371,3.065 L 76.438,85.494 c -0.26,0.287 -0.703,0.466 -1.156,0.466 -0.279,0 -0.535,-0.065 -0.74,-0.189 L 58.966,76.346 c -0.73,-0.442 -1.527,-1.61 -1.674,-2.451 l -2.498,-14.4 c -0.131,-0.753 0.309,-1.85 0.926,-2.301 l 13.76,-10.11 c 0.396,-0.291 1.07,-0.479 1.719,-0.479 0.348,0 0.672,0.055 0.914,0.153 l 17.26,7.05 c 0.641,0.261 1.156,1.125 1.084,1.812 z"
         id="path10"
         inkscape:connector-curvature="0"
         style="fill:#bf0000" /><path
         d="m 77.152,70.647 c 0.047,-0.384 0.291,-0.94 0.541,-1.236 L 88.816,56.262 c 0.25,-0.294 0.213,-0.331 -0.08,-0.079 L 76.189,66.934 c -0.295,0.253 -0.826,0.334 -1.184,0.183 L 57.479,59.64 c -0.355,-0.15 -0.377,-0.111 -0.047,0.092 l 16.158,9.861 c 0.332,0.202 0.625,0.683 0.656,1.068 l 1.066,13.578 c 0.029,0.388 0.094,0.389 0.141,0.004 z"
         id="path12"
         inkscape:connector-curvature="0"
         style="fill:#bf0000" /></g><g
       id="g20"><path
         d="m 49.47,52.33 1.966,1.19 c 0.172,-0.153 0.348,-0.299 0.531,-0.433 l 2.508,-1.844 -4.6,-2.783 z"
         id="path16"
         inkscape:connector-curvature="0"
         style="fill:#bf0000" /><path
         d="m 74.652,18.453 -17.26,-7.05 c -0.664,-0.271 -1.441,-0.415 -2.246,-0.415 -1.41,0 -2.797,0.423 -3.803,1.162 L 37.582,22.26 c -1.671,1.227 -2.665,3.694 -2.311,5.738 l 0.407,2.342 3.844,1.57 -0.783,-4.515 c -0.13,-0.752 0.311,-1.848 0.926,-2.3 L 53.427,14.986 c 0.396,-0.291 1.07,-0.479 1.719,-0.479 0.348,0 0.674,0.056 0.916,0.154 l 17.258,7.05 c 0.641,0.261 1.156,1.124 1.086,1.812 L 72.877,38.08 c -0.098,0.936 -0.738,2.368 -1.371,3.065 l -0.117,0.128 c 1.1,0.021 2.176,0.233 3.121,0.619 l 0.588,0.241 c 0.666,-1.152 1.158,-2.526 1.279,-3.686 l 1.529,-14.558 c 0.235,-2.245 -1.162,-4.582 -3.254,-5.436 z"
         id="path18"
         inkscape:connector-curvature="0"
         style="fill:#bf0000" /></g></g></svg>