<?xml version="1.0" encoding="UTF-8" standalone="no"?>
<svg
   xmlns:dc="http://purl.org/dc/elements/1.1/"
   xmlns:cc="http://creativecommons.org/ns#"
   xmlns:rdf="http://www.w3.org/1999/02/22-rdf-syntax-ns#"
   xmlns:svg="http://www.w3.org/2000/svg"
   xmlns="http://www.w3.org/2000/svg"
   xmlns:sodipodi="http://sodipodi.sourceforge.net/DTD/sodipodi-0.dtd"
   xmlns:inkscape="http://www.inkscape.org/namespaces/inkscape"
   viewBox="0 0 60 53.591278"
   x="0px"
   y="0px"
   version="1.1"
   id="svg20"
   sodipodi:docname="wood.svg"
   width="60"
   height="53.591278"
   inkscape:version="0.92.4 (5da689c313, 2019-01-14)">
  <metadata
     id="metadata26">
    <rdf:RDF>
      <cc:Work
         rdf:about="">
        <dc:format>image/svg+xml</dc:format>
        <dc:type
           rdf:resource="http://purl.org/dc/dcmitype/StillImage" />
        <dc:title>wood, log, nature, pole, wooden, </dc:title>
      </cc:Work>
    </rdf:RDF>
  </metadata>
  <defs
     id="defs24" />
  <sodipodi:namedview
     pagecolor="#ffffff"
     bordercolor="#666666"
     borderopacity="1"
     objecttolerance="10"
     gridtolerance="10"
     guidetolerance="10"
     inkscape:pageopacity="0"
     inkscape:pageshadow="2"
     inkscape:window-width="1920"
     inkscape:window-height="1001"
     id="namedview22"
     showgrid="false"
     inkscape:zoom="2.95"
     inkscape:cx="34.576271"
     inkscape:cy="18.02"
     inkscape:window-x="-9"
     inkscape:window-y="-9"
     inkscape:window-maximized="1"
     inkscape:current-layer="svg20" />
  <title
     id="title2">wood, log, nature, pole, wooden, </title>
  <g
     id="g14"
     transform="translate(-2,-4.4287207)">
    <path
       d="m 11,20 c -2.71,0 -5,3.21 -5,7 0,3.79 2.29,7 5,7 2.71,0 5,-3.21 5,-7 0,-3.79 -2.29,-7 -5,-7 z m 0,12 c -1.39,0 -3,-2.18 -3,-5 0,-2.82 1.61,-5 3,-5 1.39,0 3,2.18 3,5 0,2.82 -1.61,5 -3,5 z"
       id="path4"
       style="fill:#bf0000"
       inkscape:connector-curvature="0" />
    <path
       d="M 62,27 C 62,20.93 58,16 53,16 h -3 v 2 h 3 a 6.77,6.77 0 0 1 5.82,4 H 48 a 1,1 0 0 0 0,2 h 11.59 a 11.18,11.18 0 0 1 0,6 H 43 a 1,1 0 0 0 0,2 H 58.82 A 6.77,6.77 0 0 1 53,36 H 16.17 l 0.18,-0.17 c 0.18,-0.17 0.36,-0.34 0.53,-0.52 0.17,-0.18 0.17,-0.19 0.26,-0.29 a 6.12,6.12 0 0 0 0.45,-0.56 l 0.24,-0.31 0.11,-0.16 H 25 a 1,1 0 0 0 0,-2 h -6 c 0,0 0,-0.05 0,-0.07 0.12,-0.27 0.22,-0.55 0.32,-0.84 l 0.12,-0.39 c 0.07,-0.26 0.14,-0.51 0.2,-0.77 l 0.09,-0.44 c 0,-0.27 0.09,-0.55 0.13,-0.83 0.04,-0.28 0,-0.26 0.05,-0.4 0,-0.41 0.06,-0.83 0.06,-1.26 0,-0.43 0,-0.85 -0.06,-1.26 0,-0.14 0,-0.26 -0.05,-0.4 -0.05,-0.14 -0.08,-0.56 -0.13,-0.83 L 19.64,24.06 C 19.58,23.8 19.51,23.55 19.44,23.29 L 19.32,22.9 c -0.1,-0.29 -0.2,-0.57 -0.32,-0.84 0,0 0,-0.05 0,-0.07 h 13 a 1,1 0 0 0 0,-2 H 17.94 l -0.11,-0.16 -0.24,-0.31 a 6.12,6.12 0 0 0 -0.45,-0.56 c -0.09,-0.1 -0.17,-0.2 -0.26,-0.29 -0.09,-0.09 -0.35,-0.35 -0.53,-0.52 L 16.17,18 H 27.25 A 1.52,1.52 0 0 0 28.47,17.38 1.49,1.49 0 0 0 28.68,16 l -1.31,-4 h 3.9 l 1.61,5 a 1.49,1.49 0 0 0 1.42,1 H 44 v -2 h -6.25 a 2.64,2.64 0 0 1 0.77,-2.46 h 0.3 c 1.17,0 4.44,-0.15 6,-1.71 1.82,-1.82 1.72,-5.94 1.71,-6.4 a 1,1 0 0 0 -1,-1 c -0.46,0 -4.58,-0.11 -6.4,1.71 -1.41,1.42 -1.67,4.22 -1.7,5.61 A 4.72,4.72 0 0 0 35.73,16 H 34.67 L 33.06,11 A 1.49,1.49 0 0 0 31.64,10 H 26.69 A 1.52,1.52 0 0 0 25.47,10.62 1.49,1.49 0 0 0 25.26,12 l 1.31,4 H 11 C 6,16 2,20.93 2,27 2,31.44 4.17,35.26 7.27,37 4.17,38.74 2,42.56 2,47 c 0,6.07 4,11 9,11 h 5 V 56 H 11 A 6.77,6.77 0 0 1 5.18,52 H 21 a 1,1 0 0 0 0,-2 H 4.41 a 11.18,11.18 0 0 1 0,-6 H 16 a 1,1 0 0 0 0,-2 H 5.18 A 6.77,6.77 0 0 1 11,38 h 36.83 l -0.18,0.17 c -0.18,0.17 -0.36,0.34 -0.53,0.52 -0.17,0.18 -0.17,0.19 -0.26,0.29 a 6.12,6.12 0 0 0 -0.45,0.56 l -0.24,0.31 c 0,0.06 -0.08,0.11 -0.11,0.16 H 32 a 1,1 0 0 0 0,2 h 13 c 0,0 0,0 0,0.07 -0.12,0.27 -0.22,0.55 -0.32,0.84 l -0.12,0.39 c -0.07,0.26 -0.14,0.51 -0.2,0.78 l -0.09,0.43 c -0.05,0.27 -0.09,0.55 -0.13,0.84 0,0.13 0,0.25 0,0.39 0,0.41 -0.06,0.83 -0.06,1.26 0,0.43 0,0.85 0.06,1.26 0,0.14 0,0.26 0,0.39 0,0.29 0.08,0.57 0.13,0.84 l 0.09,0.43 c 0.06,0.27 0.13,0.52 0.2,0.78 l 0.12,0.39 c 0.1,0.29 0.2,0.57 0.32,0.84 0,0 0,0 0,0.07 h -6 a 1,1 0 0 0 0,2 h 7.06 c 0,0 0.08,0.1 0.11,0.16 l 0.24,0.31 a 6.12,6.12 0 0 0 0.45,0.56 c 0.09,0.1 0.17,0.2 0.26,0.29 0.09,0.09 0.35,0.35 0.53,0.52 l 0.18,0.17 H 22 v 2 h 31 c 5,0 9,-4.93 9,-11 0,-4.44 -2.17,-8.26 -5.27,-10 C 59.83,35.26 62,31.44 62,27 Z M 40.59,7.59 c 0.72,-0.73 2.52,-1 3.94,-1.12 -0.08,1.42 -0.39,3.22 -1.12,3.94 -0.73,0.72 -2.52,1 -3.94,1.12 0.08,-1.42 0.39,-3.22 1.12,-3.94 z M 4,27 c 0,-5 3.14,-9 7,-9 3.86,0 7,4 7,9 0,5 -3.14,9 -7,9 -3.86,0 -7,-4 -7,-9 z m 56,20 c 0,5 -3.14,9 -7,9 -3.86,0 -7,-4 -7,-9 0,-5 3.14,-9 7,-9 3.86,0 7,4 7,9 z"
       id="path6"
       style="fill:#bf0000"
       inkscape:connector-curvature="0" />
    <rect
       x="45.990002"
       y="16"
       width="2.01"
       height="2"
       style="fill:#bf0000"
       id="rect8" />
    <path
       d="m 53,54 c 2.71,0 5,-3.21 5,-7 0,-3.79 -2.29,-7 -5,-7 -2.71,0 -5,3.21 -5,7 0,3.79 2.29,7 5,7 z m 0,-12 c 1.39,0 3,2.18 3,5 0,2.82 -1.61,5 -3,5 -1.39,0 -3,-2.18 -3,-5 0,-2.82 1.61,-5 3,-5 z"
       id="path10"
       style="fill:#bf0000"
       inkscape:connector-curvature="0" />
    <rect
       x="18.02"
       y="56"
       width="1.98"
       height="2"
       style="fill:#bf0000"
       id="rect12" />
  </g>
</svg>
